<?xml version="1.0" encoding="us-ascii" standalone="no"?><svg xmlns="http://www.w3.org/2000/svg" xmlns:xlink="http://www.w3.org/1999/xlink" contentStyleType="text/css" height="512px" preserveAspectRatio="none" style="width:5345px;height:512px;background:#1B1B1B;" version="1.1" viewBox="0 0 5345 512" width="5345px" zoomAndPan="magnify"><defs/><g><rect fill="#1B1B1B" height="512" style="stroke:none;stroke-width:1.0;" width="5345" x="0" y="0"/><!--class Camera--><g id="elem_Camera"><rect codeLine="4" fill="#313139" height="210.9688" id="Camera" rx="2.5" ry="2.5" style="stroke:#E7E7E7;stroke-width:0.5;" width="932" x="7" y="294.26"/><ellipse cx="442.25" cy="310.26" fill="#2E5233" rx="11" ry="11" style="stroke:#E7E7E7;stroke-width:1.0;"/><path d="M445.2188,315.9006 Q444.6406,316.1975 444,316.3381 Q443.3594,316.4944 442.6563,316.4944 Q440.1563,316.4944 438.8281,314.8538 Q437.5156,313.1975 437.5156,310.0725 Q437.5156,306.9475 438.8281,305.2913 Q440.1563,303.635 442.6563,303.635 Q443.3594,303.635 444,303.7913 Q444.6563,303.9475 445.2188,304.2444 L445.2188,306.9631 Q444.5938,306.385 444,306.1194 Q443.4063,305.8381 442.7813,305.8381 Q441.4375,305.8381 440.75,306.9163 Q440.0625,307.9788 440.0625,310.0725 Q440.0625,312.1663 440.75,313.2444 Q441.4375,314.3069 442.7813,314.3069 Q443.4063,314.3069 444,314.0413 Q444.5938,313.76 445.2188,313.1819 L445.2188,315.9006 Z " fill="#FFFFFF"/><text fill="#FFFFFF" font-family="sans-serif" font-size="14" lengthAdjust="spacing" textLength="53" x="462.75" y="315.1067">Camera</text><line style="stroke:#E7E7E7;stroke-width:0.5;" x1="8" x2="938" y1="326.26" y2="326.26"/><rect fill="none" height="6" style="stroke:#C82930;stroke-width:1.0;" width="6" x="15" y="336.9084"/><text fill="#FFFFFF" font-family="sans-serif" font-size="14" lengthAdjust="spacing" textLength="137" x="27" y="343.2551">position: np.ndarray</text><rect fill="none" height="6" style="stroke:#C82930;stroke-width:1.0;" width="6" x="15" y="353.2053"/><text fill="#FFFFFF" font-family="sans-serif" font-size="14" lengthAdjust="spacing" textLength="131" x="27" y="359.552">look_at: np.ndarray</text><rect fill="none" height="6" style="stroke:#C82930;stroke-width:1.0;" width="6" x="15" y="369.5022"/><text fill="#FFFFFF" font-family="sans-serif" font-size="14" lengthAdjust="spacing" textLength="150" x="27" y="375.8489">up_vector: np.ndarray</text><rect fill="none" height="6" style="stroke:#C82930;stroke-width:1.0;" width="6" x="15" y="385.7991"/><text fill="#FFFFFF" font-family="sans-serif" font-size="14" lengthAdjust="spacing" textLength="58" x="27" y="392.1457">fov: float</text><rect fill="none" height="6" style="stroke:#C82930;stroke-width:1.0;" width="6" x="15" y="402.0959"/><text fill="#FFFFFF" font-family="sans-serif" font-size="14" lengthAdjust="spacing" textLength="122" x="27" y="408.4426">aspect_ratio: float</text><rect fill="none" height="6" style="stroke:#C82930;stroke-width:1.0;" width="6" x="15" y="418.3928"/><text fill="#FFFFFF" font-family="sans-serif" font-size="14" lengthAdjust="spacing" textLength="99" x="27" y="424.7395">near_clip: float</text><rect fill="none" height="6" style="stroke:#C82930;stroke-width:1.0;" width="6" x="15" y="434.6897"/><text fill="#FFFFFF" font-family="sans-serif" font-size="14" lengthAdjust="spacing" textLength="85" x="27" y="441.0364">far_clip: float</text><line style="stroke:#E7E7E7;stroke-width:0.5;" x1="8" x2="938" y1="448.3381" y2="448.3381"/><text fill="#FFFFFF" font-family="sans-serif" font-size="14" lengthAdjust="spacing" textLength="920" x="13" y="465.3332">__init__(self, position: np.ndarray, look_at: np.ndarray, up_vector: np.ndarray, fov: float, aspect_ratio: float, near_clip: float, far_clip: float)</text><text fill="#FFFFFF" font-family="sans-serif" font-size="14" lengthAdjust="spacing" textLength="209" x="13" y="481.6301">set_all_rays(self, width, height)</text><text fill="#FFFFFF" font-family="sans-serif" font-size="14" lengthAdjust="spacing" textLength="319" x="13" y="497.927">get_window_content(self, width, height, world)</text></g><!--class PygameRenderer--><g id="elem_PygameRenderer"><rect codeLine="17" fill="#313139" height="178.375" id="PygameRenderer" rx="2.5" ry="2.5" style="stroke:#E7E7E7;stroke-width:0.5;" width="295" x="325.5" y="31.44"/><ellipse cx="408.75" cy="47.44" fill="#2E5233" rx="11" ry="11" style="stroke:#E7E7E7;stroke-width:1.0;"/><path d="M411.7188,53.0806 Q411.1406,53.3775 410.5,53.5181 Q409.8594,53.6744 409.1563,53.6744 Q406.6563,53.6744 405.3281,52.0338 Q404.0156,50.3775 404.0156,47.2525 Q404.0156,44.1275 405.3281,42.4713 Q406.6563,40.815 409.1563,40.815 Q409.8594,40.815 410.5,40.9713 Q411.1563,41.1275 411.7188,41.4244 L411.7188,44.1431 Q411.0938,43.565 410.5,43.2994 Q409.9063,43.0181 409.2813,43.0181 Q407.9375,43.0181 407.25,44.0963 Q406.5625,45.1588 406.5625,47.2525 Q406.5625,49.3463 407.25,50.4244 Q407.9375,51.4869 409.2813,51.4869 Q409.9063,51.4869 410.5,51.2213 Q411.0938,50.94 411.7188,50.3619 L411.7188,53.0806 Z " fill="#FFFFFF"/><text fill="#FFFFFF" font-family="sans-serif" font-size="14" lengthAdjust="spacing" textLength="120" x="429.25" y="52.2867">PygameRenderer</text><line style="stroke:#E7E7E7;stroke-width:0.5;" x1="326.5" x2="619.5" y1="63.44" y2="63.44"/><rect fill="none" height="6" style="stroke:#C82930;stroke-width:1.0;" width="6" x="333.5" y="74.0884"/><text fill="#FFFFFF" font-family="sans-serif" font-size="14" lengthAdjust="spacing" textLength="118" x="345.5" y="80.4351">screen_width: int</text><rect fill="none" height="6" style="stroke:#C82930;stroke-width:1.0;" width="6" x="333.5" y="90.3853"/><text fill="#FFFFFF" font-family="sans-serif" font-size="14" lengthAdjust="spacing" textLength="125" x="345.5" y="96.732">screen_height: int</text><rect fill="none" height="6" style="stroke:#C82930;stroke-width:1.0;" width="6" x="333.5" y="106.6822"/><text fill="#FFFFFF" font-family="sans-serif" font-size="14" lengthAdjust="spacing" textLength="65" x="345.5" y="113.0289">world: list</text><rect fill="none" height="6" style="stroke:#C82930;stroke-width:1.0;" width="6" x="333.5" y="122.9791"/><text fill="#FFFFFF" font-family="sans-serif" font-size="14" lengthAdjust="spacing" textLength="113" x="345.5" y="129.3257">camera: Camera</text><rect fill="none" height="6" style="stroke:#C82930;stroke-width:1.0;" width="6" x="333.5" y="139.2759"/><text fill="#FFFFFF" font-family="sans-serif" font-size="14" lengthAdjust="spacing" textLength="168" x="345.5" y="145.6226">screen: pygame.Surface</text><rect fill="none" height="6" style="stroke:#C82930;stroke-width:1.0;" width="6" x="333.5" y="155.5728"/><text fill="#FFFFFF" font-family="sans-serif" font-size="14" lengthAdjust="spacing" textLength="195" x="345.5" y="161.9195">window_content: np.ndarray</text><line style="stroke:#E7E7E7;stroke-width:0.5;" x1="326.5" x2="619.5" y1="169.2213" y2="169.2213"/><text fill="#FFFFFF" font-family="sans-serif" font-size="14" lengthAdjust="spacing" textLength="283" x="331.5" y="186.2164">__init__(self, width, height, world, camera)</text><text fill="#FFFFFF" font-family="sans-serif" font-size="14" lengthAdjust="spacing" textLength="97" x="331.5" y="202.5132">mainloop(self)</text></g><!--class RayMarchObject--><g id="elem_RayMarchObject"><rect codeLine="28" fill="#313139" height="80.5938" id="RayMarchObject" rx="2.5" ry="2.5" style="stroke:#E7E7E7;stroke-width:0.5;" width="160" x="3038" y="359.45"/><ellipse cx="3060.2" cy="375.45" fill="#2E5233" rx="11" ry="11" style="stroke:#E7E7E7;stroke-width:1.0;"/><path d="M3063.1688,381.0906 Q3062.5906,381.3875 3061.95,381.5281 Q3061.3094,381.6844 3060.6063,381.6844 Q3058.1063,381.6844 3056.7781,380.0438 Q3055.4656,378.3875 3055.4656,375.2625 Q3055.4656,372.1375 3056.7781,370.4813 Q3058.1063,368.825 3060.6063,368.825 Q3061.3094,368.825 3061.95,368.9813 Q3062.6063,369.1375 3063.1688,369.4344 L3063.1688,372.1531 Q3062.5438,371.575 3061.95,371.3094 Q3061.3563,371.0281 3060.7313,371.0281 Q3059.3875,371.0281 3058.7,372.1063 Q3058.0125,373.1688 3058.0125,375.2625 Q3058.0125,377.3563 3058.7,378.4344 Q3059.3875,379.4969 3060.7313,379.4969 Q3061.3563,379.4969 3061.95,379.2313 Q3062.5438,378.95 3063.1688,378.3719 L3063.1688,381.0906 Z " fill="#FFFFFF"/><text fill="#FFFFFF" font-family="sans-serif" font-size="14" lengthAdjust="spacing" textLength="112" x="3075.8" y="380.2967">RayMarchObject</text><line style="stroke:#E7E7E7;stroke-width:0.5;" x1="3039" x2="3197" y1="391.45" y2="391.45"/><line style="stroke:#E7E7E7;stroke-width:0.5;" x1="3039" x2="3197" y1="399.45" y2="399.45"/><text fill="#FFFFFF" font-family="sans-serif" font-size="14" font-style="italic" lengthAdjust="spacing" textLength="148" x="3044" y="416.4451">distance2point(point)</text><text fill="#FFFFFF" font-family="sans-serif" font-size="14" font-style="italic" lengthAdjust="spacing" textLength="74" x="3044" y="432.742">get_color()</text></g><!--class Sphere--><g id="elem_Sphere"><rect codeLine="33" fill="#313139" height="210.9688" id="Sphere" rx="2.5" ry="2.5" style="stroke:#E7E7E7;stroke-width:0.5;" width="549" x="655.5" y="15.14"/><ellipse cx="900.75" cy="31.14" fill="#2E5233" rx="11" ry="11" style="stroke:#E7E7E7;stroke-width:1.0;"/><path d="M903.7188,36.7806 Q903.1406,37.0775 902.5,37.2181 Q901.8594,37.3744 901.1563,37.3744 Q898.6563,37.3744 897.3281,35.7338 Q896.0156,34.0775 896.0156,30.9525 Q896.0156,27.8275 897.3281,26.1713 Q898.6563,24.515 901.1563,24.515 Q901.8594,24.515 902.5,24.6713 Q903.1563,24.8275 903.7188,25.1244 L903.7188,27.8431 Q903.0938,27.265 902.5,26.9994 Q901.9063,26.7181 901.2813,26.7181 Q899.9375,26.7181 899.25,27.7963 Q898.5625,28.8588 898.5625,30.9525 Q898.5625,33.0463 899.25,34.1244 Q899.9375,35.1869 901.2813,35.1869 Q901.9063,35.1869 902.5,34.9213 Q903.0938,34.64 903.7188,34.0619 L903.7188,36.7806 Z " fill="#FFFFFF"/><text fill="#FFFFFF" font-family="sans-serif" font-size="14" lengthAdjust="spacing" textLength="50" x="921.25" y="35.9867">Sphere</text><line style="stroke:#E7E7E7;stroke-width:0.5;" x1="656.5" x2="1203.5" y1="47.14" y2="47.14"/><rect fill="none" height="6" style="stroke:#C82930;stroke-width:1.0;" width="6" x="663.5" y="57.7884"/><text fill="#FFFFFF" font-family="sans-serif" font-size="14" lengthAdjust="spacing" textLength="38" x="675.5" y="64.1351">id: int</text><rect fill="none" height="6" style="stroke:#C82930;stroke-width:1.0;" width="6" x="663.5" y="74.0853"/><text fill="#FFFFFF" font-family="sans-serif" font-size="14" lengthAdjust="spacing" textLength="127" x="675.5" y="80.432">center: np.ndarray</text><rect fill="none" height="6" style="stroke:#C82930;stroke-width:1.0;" width="6" x="663.5" y="90.3822"/><text fill="#FFFFFF" font-family="sans-serif" font-size="14" lengthAdjust="spacing" textLength="80" x="675.5" y="96.7289">radius: float</text><rect fill="none" height="6" style="stroke:#C82930;stroke-width:1.0;" width="6" x="663.5" y="106.6791"/><text fill="#FFFFFF" font-family="sans-serif" font-size="14" lengthAdjust="spacing" textLength="116" x="675.5" y="113.0257">color: np.ndarray</text><rect fill="none" height="6" style="stroke:#C82930;stroke-width:1.0;" width="6" x="663.5" y="122.9759"/><text fill="#FFFFFF" font-family="sans-serif" font-size="14" lengthAdjust="spacing" textLength="87" x="675.5" y="129.3226">multipy: float</text><rect fill="none" height="6" style="stroke:#C82930;stroke-width:1.0;" width="6" x="663.5" y="139.2728"/><text fill="#FFFFFF" font-family="sans-serif" font-size="14" lengthAdjust="spacing" textLength="119" x="675.5" y="145.6195">multipy_dist: float</text><text fill="#FFFFFF" font-family="sans-serif" font-size="14" lengthAdjust="spacing" textLength="64" x="675.5" y="161.9164">get_color</text><line style="stroke:#E7E7E7;stroke-width:0.5;" x1="656.5" x2="1203.5" y1="169.2181" y2="169.2181"/><text fill="#FFFFFF" font-family="sans-serif" font-size="14" lengthAdjust="spacing" textLength="537" x="661.5" y="186.2132">__init__(self, center, radius, color=np.array([1,0,0]), multipy=0, multipy_dist=5)</text><text fill="#FFFFFF" font-family="sans-serif" font-size="14" lengthAdjust="spacing" textLength="262" x="661.5" y="202.5101">distance2point(self, point: np.ndarray)</text><text fill="#FFFFFF" font-family="sans-serif" font-size="14" lengthAdjust="spacing" textLength="88" x="661.5" y="218.807">to_array(self)</text></g><!--class FuzzySphere--><g id="elem_FuzzySphere"><rect codeLine="46" fill="#313139" height="194.6719" id="FuzzySphere" rx="2.5" ry="2.5" style="stroke:#E7E7E7;stroke-width:0.5;" width="361" x="1239.5" y="23.29"/><ellipse cx="1370.75" cy="39.29" fill="#2E5233" rx="11" ry="11" style="stroke:#E7E7E7;stroke-width:1.0;"/><path d="M1373.7188,44.9306 Q1373.1406,45.2275 1372.5,45.3681 Q1371.8594,45.5244 1371.1563,45.5244 Q1368.6563,45.5244 1367.3281,43.8838 Q1366.0156,42.2275 1366.0156,39.1025 Q1366.0156,35.9775 1367.3281,34.3213 Q1368.6563,32.665 1371.1563,32.665 Q1371.8594,32.665 1372.5,32.8213 Q1373.1563,32.9775 1373.7188,33.2744 L1373.7188,35.9931 Q1373.0938,35.415 1372.5,35.1494 Q1371.9063,34.8681 1371.2813,34.8681 Q1369.9375,34.8681 1369.25,35.9463 Q1368.5625,37.0088 1368.5625,39.1025 Q1368.5625,41.1963 1369.25,42.2744 Q1369.9375,43.3369 1371.2813,43.3369 Q1371.9063,43.3369 1372.5,43.0713 Q1373.0938,42.79 1373.7188,42.2119 L1373.7188,44.9306 Z " fill="#FFFFFF"/><text fill="#FFFFFF" font-family="sans-serif" font-size="14" lengthAdjust="spacing" textLength="90" x="1391.25" y="44.1367">FuzzySphere</text><line style="stroke:#E7E7E7;stroke-width:0.5;" x1="1240.5" x2="1599.5" y1="55.29" y2="55.29"/><rect fill="none" height="6" style="stroke:#C82930;stroke-width:1.0;" width="6" x="1247.5" y="65.9384"/><text fill="#FFFFFF" font-family="sans-serif" font-size="14" lengthAdjust="spacing" textLength="38" x="1259.5" y="72.2851">id: int</text><rect fill="none" height="6" style="stroke:#C82930;stroke-width:1.0;" width="6" x="1247.5" y="82.2353"/><text fill="#FFFFFF" font-family="sans-serif" font-size="14" lengthAdjust="spacing" textLength="127" x="1259.5" y="88.582">center: np.ndarray</text><rect fill="none" height="6" style="stroke:#C82930;stroke-width:1.0;" width="6" x="1247.5" y="98.5322"/><text fill="#FFFFFF" font-family="sans-serif" font-size="14" lengthAdjust="spacing" textLength="80" x="1259.5" y="104.8789">radius: float</text><rect fill="none" height="6" style="stroke:#C82930;stroke-width:1.0;" width="6" x="1247.5" y="114.8291"/><text fill="#FFFFFF" font-family="sans-serif" font-size="14" lengthAdjust="spacing" textLength="116" x="1259.5" y="121.1757">color: np.ndarray</text><rect fill="none" height="6" style="stroke:#C82930;stroke-width:1.0;" width="6" x="1247.5" y="131.1259"/><text fill="#FFFFFF" font-family="sans-serif" font-size="14" lengthAdjust="spacing" textLength="79" x="1259.5" y="137.4726">scaler: float</text><line style="stroke:#E7E7E7;stroke-width:0.5;" x1="1240.5" x2="1599.5" y1="144.7744" y2="144.7744"/><text fill="#FFFFFF" font-family="sans-serif" font-size="14" lengthAdjust="spacing" textLength="349" x="1245.5" y="161.7695">__init__(self, center, radius, color=np.array([1,0,0]))</text><text fill="#FFFFFF" font-family="sans-serif" font-size="14" lengthAdjust="spacing" textLength="180" x="1245.5" y="178.0664">distance2point(self, point)</text><text fill="#FFFFFF" font-family="sans-serif" font-size="14" lengthAdjust="spacing" textLength="74" x="1245.5" y="194.3632">get_color()</text><text fill="#FFFFFF" font-family="sans-serif" font-size="14" lengthAdjust="spacing" textLength="88" x="1245.5" y="210.6601">to_array(self)</text></g><!--class PlaneY--><g id="elem_PlaneY"><rect codeLine="58" fill="#313139" height="145.7813" id="PlaneY" rx="2.5" ry="2.5" style="stroke:#E7E7E7;stroke-width:0.5;" width="273" x="5065.5" y="47.74"/><ellipse cx="5174.25" cy="63.74" fill="#2E5233" rx="11" ry="11" style="stroke:#E7E7E7;stroke-width:1.0;"/><path d="M5177.2188,69.3806 Q5176.6406,69.6775 5176,69.8181 Q5175.3594,69.9744 5174.6563,69.9744 Q5172.1563,69.9744 5170.8281,68.3338 Q5169.5156,66.6775 5169.5156,63.5525 Q5169.5156,60.4275 5170.8281,58.7713 Q5172.1563,57.115 5174.6563,57.115 Q5175.3594,57.115 5176,57.2713 Q5176.6563,57.4275 5177.2188,57.7244 L5177.2188,60.4431 Q5176.5938,59.865 5176,59.5994 Q5175.4063,59.3181 5174.7813,59.3181 Q5173.4375,59.3181 5172.75,60.3963 Q5172.0625,61.4588 5172.0625,63.5525 Q5172.0625,65.6463 5172.75,66.7244 Q5173.4375,67.7869 5174.7813,67.7869 Q5175.4063,67.7869 5176,67.5213 Q5176.5938,67.24 5177.2188,66.6619 L5177.2188,69.3806 Z " fill="#FFFFFF"/><text fill="#FFFFFF" font-family="sans-serif" font-size="14" lengthAdjust="spacing" textLength="47" x="5194.75" y="68.5867">PlaneY</text><line style="stroke:#E7E7E7;stroke-width:0.5;" x1="5066.5" x2="5337.5" y1="79.74" y2="79.74"/><rect fill="none" height="6" style="stroke:#C82930;stroke-width:1.0;" width="6" x="5073.5" y="90.3884"/><text fill="#FFFFFF" font-family="sans-serif" font-size="14" lengthAdjust="spacing" textLength="38" x="5085.5" y="96.7351">id: int</text><rect fill="none" height="6" style="stroke:#C82930;stroke-width:1.0;" width="6" x="5073.5" y="106.6853"/><text fill="#FFFFFF" font-family="sans-serif" font-size="14" lengthAdjust="spacing" textLength="45" x="5085.5" y="113.032">y: float</text><rect fill="none" height="6" style="stroke:#C82930;stroke-width:1.0;" width="6" x="5073.5" y="122.9822"/><text fill="#FFFFFF" font-family="sans-serif" font-size="14" lengthAdjust="spacing" textLength="116" x="5085.5" y="129.3289">color: np.ndarray</text><line style="stroke:#E7E7E7;stroke-width:0.5;" x1="5066.5" x2="5337.5" y1="136.6306" y2="136.6306"/><text fill="#FFFFFF" font-family="sans-serif" font-size="14" lengthAdjust="spacing" textLength="261" x="5071.5" y="153.6257">__init__(self, y, color=np.array([0,1,0]))</text><text fill="#FFFFFF" font-family="sans-serif" font-size="14" lengthAdjust="spacing" textLength="180" x="5071.5" y="169.9226">distance2point(self, point)</text><text fill="#FFFFFF" font-family="sans-serif" font-size="14" lengthAdjust="spacing" textLength="88" x="5071.5" y="186.2195">to_array(self)</text></g><!--class Box--><g id="elem_Box"><rect codeLine="67" fill="#313139" height="210.9688" id="Box" rx="2.5" ry="2.5" style="stroke:#E7E7E7;stroke-width:0.5;" width="721" x="1635.5" y="15.14"/><ellipse cx="1978.75" cy="31.14" fill="#2E5233" rx="11" ry="11" style="stroke:#E7E7E7;stroke-width:1.0;"/><path d="M1981.7188,36.7806 Q1981.1406,37.0775 1980.5,37.2181 Q1979.8594,37.3744 1979.1563,37.3744 Q1976.6563,37.3744 1975.3281,35.7338 Q1974.0156,34.0775 1974.0156,30.9525 Q1974.0156,27.8275 1975.3281,26.1713 Q1976.6563,24.515 1979.1563,24.515 Q1979.8594,24.515 1980.5,24.6713 Q1981.1563,24.8275 1981.7188,25.1244 L1981.7188,27.8431 Q1981.0938,27.265 1980.5,26.9994 Q1979.9063,26.7181 1979.2813,26.7181 Q1977.9375,26.7181 1977.25,27.7963 Q1976.5625,28.8588 1976.5625,30.9525 Q1976.5625,33.0463 1977.25,34.1244 Q1977.9375,35.1869 1979.2813,35.1869 Q1979.9063,35.1869 1980.5,34.9213 Q1981.0938,34.64 1981.7188,34.0619 L1981.7188,36.7806 Z " fill="#FFFFFF"/><text fill="#FFFFFF" font-family="sans-serif" font-size="14" lengthAdjust="spacing" textLength="26" x="1999.25" y="35.9867">Box</text><line style="stroke:#E7E7E7;stroke-width:0.5;" x1="1636.5" x2="2355.5" y1="47.14" y2="47.14"/><rect fill="none" height="6" style="stroke:#C82930;stroke-width:1.0;" width="6" x="1643.5" y="57.7884"/><text fill="#FFFFFF" font-family="sans-serif" font-size="14" lengthAdjust="spacing" textLength="38" x="1655.5" y="64.1351">id: int</text><rect fill="none" height="6" style="stroke:#C82930;stroke-width:1.0;" width="6" x="1643.5" y="74.0853"/><text fill="#FFFFFF" font-family="sans-serif" font-size="14" lengthAdjust="spacing" textLength="127" x="1655.5" y="80.432">center: np.ndarray</text><rect fill="none" height="6" style="stroke:#C82930;stroke-width:1.0;" width="6" x="1643.5" y="90.3822"/><text fill="#FFFFFF" font-family="sans-serif" font-size="14" lengthAdjust="spacing" textLength="150" x="1655.5" y="96.7289">half_sides: np.ndarray</text><rect fill="none" height="6" style="stroke:#C82930;stroke-width:1.0;" width="6" x="1643.5" y="106.6791"/><text fill="#FFFFFF" font-family="sans-serif" font-size="14" lengthAdjust="spacing" textLength="116" x="1655.5" y="113.0257">color: np.ndarray</text><rect fill="none" height="6" style="stroke:#C82930;stroke-width:1.0;" width="6" x="1643.5" y="122.9759"/><text fill="#FFFFFF" font-family="sans-serif" font-size="14" lengthAdjust="spacing" textLength="159" x="1655.5" y="129.3226">rotation_dir: np.ndarray</text><rect fill="none" height="6" style="stroke:#C82930;stroke-width:1.0;" width="6" x="1643.5" y="139.2728"/><text fill="#FFFFFF" font-family="sans-serif" font-size="14" lengthAdjust="spacing" textLength="136" x="1655.5" y="145.6195">rotation_angle: float</text><line style="stroke:#E7E7E7;stroke-width:0.5;" x1="1636.5" x2="2355.5" y1="152.9213" y2="152.9213"/><text fill="#FFFFFF" font-family="sans-serif" font-size="14" lengthAdjust="spacing" textLength="709" x="1641.5" y="169.9164">__init__(self, center, half_sides, rotation_dir=np.array([0,0,0]), rotation_angle=0, color=np.array([1,0,0]))</text><text fill="#FFFFFF" font-family="sans-serif" font-size="14" lengthAdjust="spacing" textLength="180" x="1641.5" y="186.2132">distance2point(self, point)</text><text fill="#FFFFFF" font-family="sans-serif" font-size="14" lengthAdjust="spacing" textLength="74" x="1641.5" y="202.5101">get_color()</text><text fill="#FFFFFF" font-family="sans-serif" font-size="14" lengthAdjust="spacing" textLength="88" x="1641.5" y="218.807">to_array(self)</text></g><!--class RoundBox--><g id="elem_RoundBox"><rect codeLine="80" fill="#313139" height="227.2656" id="RoundBox" rx="2.5" ry="2.5" style="stroke:#E7E7E7;stroke-width:0.5;" width="791" x="2391.5" y="7"/><ellipse cx="2746.75" cy="23" fill="#2E5233" rx="11" ry="11" style="stroke:#E7E7E7;stroke-width:1.0;"/><path d="M2749.7188,28.6406 Q2749.1406,28.9375 2748.5,29.0781 Q2747.8594,29.2344 2747.1563,29.2344 Q2744.6563,29.2344 2743.3281,27.5938 Q2742.0156,25.9375 2742.0156,22.8125 Q2742.0156,19.6875 2743.3281,18.0313 Q2744.6563,16.375 2747.1563,16.375 Q2747.8594,16.375 2748.5,16.5313 Q2749.1563,16.6875 2749.7188,16.9844 L2749.7188,19.7031 Q2749.0938,19.125 2748.5,18.8594 Q2747.9063,18.5781 2747.2813,18.5781 Q2745.9375,18.5781 2745.25,19.6563 Q2744.5625,20.7188 2744.5625,22.8125 Q2744.5625,24.9063 2745.25,25.9844 Q2745.9375,27.0469 2747.2813,27.0469 Q2747.9063,27.0469 2748.5,26.7813 Q2749.0938,26.5 2749.7188,25.9219 L2749.7188,28.6406 Z " fill="#FFFFFF"/><text fill="#FFFFFF" font-family="sans-serif" font-size="14" lengthAdjust="spacing" textLength="72" x="2767.25" y="27.8467">RoundBox</text><line style="stroke:#E7E7E7;stroke-width:0.5;" x1="2392.5" x2="3181.5" y1="39" y2="39"/><rect fill="none" height="6" style="stroke:#C82930;stroke-width:1.0;" width="6" x="2399.5" y="49.6484"/><text fill="#FFFFFF" font-family="sans-serif" font-size="14" lengthAdjust="spacing" textLength="38" x="2411.5" y="55.9951">id: int</text><rect fill="none" height="6" style="stroke:#C82930;stroke-width:1.0;" width="6" x="2399.5" y="65.9453"/><text fill="#FFFFFF" font-family="sans-serif" font-size="14" lengthAdjust="spacing" textLength="127" x="2411.5" y="72.292">center: np.ndarray</text><rect fill="none" height="6" style="stroke:#C82930;stroke-width:1.0;" width="6" x="2399.5" y="82.2422"/><text fill="#FFFFFF" font-family="sans-serif" font-size="14" lengthAdjust="spacing" textLength="150" x="2411.5" y="88.5889">half_sides: np.ndarray</text><rect fill="none" height="6" style="stroke:#C82930;stroke-width:1.0;" width="6" x="2399.5" y="98.5391"/><text fill="#FFFFFF" font-family="sans-serif" font-size="14" lengthAdjust="spacing" textLength="100" x="2411.5" y="104.8857">rounding: float</text><rect fill="none" height="6" style="stroke:#C82930;stroke-width:1.0;" width="6" x="2399.5" y="114.8359"/><text fill="#FFFFFF" font-family="sans-serif" font-size="14" lengthAdjust="spacing" textLength="116" x="2411.5" y="121.1826">color: np.ndarray</text><rect fill="none" height="6" style="stroke:#C82930;stroke-width:1.0;" width="6" x="2399.5" y="131.1328"/><text fill="#FFFFFF" font-family="sans-serif" font-size="14" lengthAdjust="spacing" textLength="159" x="2411.5" y="137.4795">rotation_dir: np.ndarray</text><rect fill="none" height="6" style="stroke:#C82930;stroke-width:1.0;" width="6" x="2399.5" y="147.4297"/><text fill="#FFFFFF" font-family="sans-serif" font-size="14" lengthAdjust="spacing" textLength="136" x="2411.5" y="153.7764">rotation_angle: float</text><line style="stroke:#E7E7E7;stroke-width:0.5;" x1="2392.5" x2="3181.5" y1="161.0781" y2="161.0781"/><text fill="#FFFFFF" font-family="sans-serif" font-size="14" lengthAdjust="spacing" textLength="779" x="2397.5" y="178.0732">__init__(self, center, half_sides, rounding, color=np.array([1,0,0]), rotation_dir=np.array([0,0,0]), rotation_angle=0)</text><text fill="#FFFFFF" font-family="sans-serif" font-size="14" lengthAdjust="spacing" textLength="180" x="2397.5" y="194.3701">distance2point(self, point)</text><text fill="#FFFFFF" font-family="sans-serif" font-size="14" lengthAdjust="spacing" textLength="74" x="2397.5" y="210.667">get_color()</text><text fill="#FFFFFF" font-family="sans-serif" font-size="14" lengthAdjust="spacing" textLength="88" x="2397.5" y="226.9639">to_array(self)</text></g><!--class FrameBox--><g id="elem_FrameBox"><rect codeLine="94" fill="#313139" height="194.6719" id="FrameBox" rx="2.5" ry="2.5" style="stroke:#E7E7E7;stroke-width:0.5;" width="462" x="3218" y="23.29"/><ellipse cx="3410.25" cy="39.29" fill="#2E5233" rx="11" ry="11" style="stroke:#E7E7E7;stroke-width:1.0;"/><path d="M3413.2188,44.9306 Q3412.6406,45.2275 3412,45.3681 Q3411.3594,45.5244 3410.6563,45.5244 Q3408.1563,45.5244 3406.8281,43.8838 Q3405.5156,42.2275 3405.5156,39.1025 Q3405.5156,35.9775 3406.8281,34.3213 Q3408.1563,32.665 3410.6563,32.665 Q3411.3594,32.665 3412,32.8213 Q3412.6563,32.9775 3413.2188,33.2744 L3413.2188,35.9931 Q3412.5938,35.415 3412,35.1494 Q3411.4063,34.8681 3410.7813,34.8681 Q3409.4375,34.8681 3408.75,35.9463 Q3408.0625,37.0088 3408.0625,39.1025 Q3408.0625,41.1963 3408.75,42.2744 Q3409.4375,43.3369 3410.7813,43.3369 Q3411.4063,43.3369 3412,43.0713 Q3412.5938,42.79 3413.2188,42.2119 L3413.2188,44.9306 Z " fill="#FFFFFF"/><text fill="#FFFFFF" font-family="sans-serif" font-size="14" lengthAdjust="spacing" textLength="69" x="3430.75" y="44.1367">FrameBox</text><line style="stroke:#E7E7E7;stroke-width:0.5;" x1="3219" x2="3679" y1="55.29" y2="55.29"/><rect fill="none" height="6" style="stroke:#C82930;stroke-width:1.0;" width="6" x="3226" y="65.9384"/><text fill="#FFFFFF" font-family="sans-serif" font-size="14" lengthAdjust="spacing" textLength="38" x="3238" y="72.2851">id: int</text><rect fill="none" height="6" style="stroke:#C82930;stroke-width:1.0;" width="6" x="3226" y="82.2353"/><text fill="#FFFFFF" font-family="sans-serif" font-size="14" lengthAdjust="spacing" textLength="127" x="3238" y="88.582">center: np.ndarray</text><rect fill="none" height="6" style="stroke:#C82930;stroke-width:1.0;" width="6" x="3226" y="98.5322"/><text fill="#FFFFFF" font-family="sans-serif" font-size="14" lengthAdjust="spacing" textLength="150" x="3238" y="104.8789">half_sides: np.ndarray</text><rect fill="none" height="6" style="stroke:#C82930;stroke-width:1.0;" width="6" x="3226" y="114.8291"/><text fill="#FFFFFF" font-family="sans-serif" font-size="14" lengthAdjust="spacing" textLength="105" x="3238" y="121.1757">thickness: float</text><rect fill="none" height="6" style="stroke:#C82930;stroke-width:1.0;" width="6" x="3226" y="131.1259"/><text fill="#FFFFFF" font-family="sans-serif" font-size="14" lengthAdjust="spacing" textLength="116" x="3238" y="137.4726">color: np.ndarray</text><line style="stroke:#E7E7E7;stroke-width:0.5;" x1="3219" x2="3679" y1="144.7744" y2="144.7744"/><text fill="#FFFFFF" font-family="sans-serif" font-size="14" lengthAdjust="spacing" textLength="450" x="3224" y="161.7695">__init__(self, center, half_sides, thickness, color=np.array([1,0,0]))</text><text fill="#FFFFFF" font-family="sans-serif" font-size="14" lengthAdjust="spacing" textLength="180" x="3224" y="178.0664">distance2point(self, point)</text><text fill="#FFFFFF" font-family="sans-serif" font-size="14" lengthAdjust="spacing" textLength="74" x="3224" y="194.3632">get_color()</text><text fill="#FFFFFF" font-family="sans-serif" font-size="14" lengthAdjust="spacing" textLength="88" x="3224" y="210.6601">to_array(self)</text></g><!--class Torus--><g id="elem_Torus"><rect codeLine="106" fill="#313139" height="178.375" id="Torus" rx="2.5" ry="2.5" style="stroke:#E7E7E7;stroke-width:0.5;" width="453" x="3715.5" y="31.44"/><ellipse cx="3917.75" cy="47.44" fill="#2E5233" rx="11" ry="11" style="stroke:#E7E7E7;stroke-width:1.0;"/><path d="M3920.7188,53.0806 Q3920.1406,53.3775 3919.5,53.5181 Q3918.8594,53.6744 3918.1563,53.6744 Q3915.6563,53.6744 3914.3281,52.0338 Q3913.0156,50.3775 3913.0156,47.2525 Q3913.0156,44.1275 3914.3281,42.4713 Q3915.6563,40.815 3918.1563,40.815 Q3918.8594,40.815 3919.5,40.9713 Q3920.1563,41.1275 3920.7188,41.4244 L3920.7188,44.1431 Q3920.0938,43.565 3919.5,43.2994 Q3918.9063,43.0181 3918.2813,43.0181 Q3916.9375,43.0181 3916.25,44.0963 Q3915.5625,45.1588 3915.5625,47.2525 Q3915.5625,49.3463 3916.25,50.4244 Q3916.9375,51.4869 3918.2813,51.4869 Q3918.9063,51.4869 3919.5,51.2213 Q3920.0938,50.94 3920.7188,50.3619 L3920.7188,53.0806 Z " fill="#FFFFFF"/><text fill="#FFFFFF" font-family="sans-serif" font-size="14" lengthAdjust="spacing" textLength="40" x="3938.25" y="52.2867">Torus</text><line style="stroke:#E7E7E7;stroke-width:0.5;" x1="3716.5" x2="4167.5" y1="63.44" y2="63.44"/><rect fill="none" height="6" style="stroke:#C82930;stroke-width:1.0;" width="6" x="3723.5" y="74.0884"/><text fill="#FFFFFF" font-family="sans-serif" font-size="14" lengthAdjust="spacing" textLength="38" x="3735.5" y="80.4351">id: int</text><rect fill="none" height="6" style="stroke:#C82930;stroke-width:1.0;" width="6" x="3723.5" y="90.3853"/><text fill="#FFFFFF" font-family="sans-serif" font-size="14" lengthAdjust="spacing" textLength="127" x="3735.5" y="96.732">center: np.ndarray</text><rect fill="none" height="6" style="stroke:#C82930;stroke-width:1.0;" width="6" x="3723.5" y="106.6822"/><text fill="#FFFFFF" font-family="sans-serif" font-size="14" lengthAdjust="spacing" textLength="107" x="3735.5" y="113.0289">radi: np.ndarray</text><rect fill="none" height="6" style="stroke:#C82930;stroke-width:1.0;" width="6" x="3723.5" y="122.9791"/><text fill="#FFFFFF" font-family="sans-serif" font-size="14" lengthAdjust="spacing" textLength="116" x="3735.5" y="129.3257">color: np.ndarray</text><line style="stroke:#E7E7E7;stroke-width:0.5;" x1="3716.5" x2="4167.5" y1="136.6275" y2="136.6275"/><text fill="#FFFFFF" font-family="sans-serif" font-size="14" lengthAdjust="spacing" textLength="441" x="3721.5" y="153.6226">__init__(self, center, radi=np.array([1,1]), color=np.array([1,0,0]))</text><text fill="#FFFFFF" font-family="sans-serif" font-size="14" lengthAdjust="spacing" textLength="180" x="3721.5" y="169.9195">distance2point(self, point)</text><text fill="#FFFFFF" font-family="sans-serif" font-size="14" lengthAdjust="spacing" textLength="74" x="3721.5" y="186.2164">get_color()</text><text fill="#FFFFFF" font-family="sans-serif" font-size="14" lengthAdjust="spacing" textLength="88" x="3721.5" y="202.5132">to_array(self)</text></g><!--class Cylinder--><g id="elem_Cylinder"><rect codeLine="117" fill="#313139" height="194.6719" id="Cylinder" rx="2.5" ry="2.5" style="stroke:#E7E7E7;stroke-width:0.5;" width="413" x="4203.5" y="23.29"/><ellipse cx="4378.25" cy="39.29" fill="#2E5233" rx="11" ry="11" style="stroke:#E7E7E7;stroke-width:1.0;"/><path d="M4381.2188,44.9306 Q4380.6406,45.2275 4380,45.3681 Q4379.3594,45.5244 4378.6563,45.5244 Q4376.1563,45.5244 4374.8281,43.8838 Q4373.5156,42.2275 4373.5156,39.1025 Q4373.5156,35.9775 4374.8281,34.3213 Q4376.1563,32.665 4378.6563,32.665 Q4379.3594,32.665 4380,32.8213 Q4380.6563,32.9775 4381.2188,33.2744 L4381.2188,35.9931 Q4380.5938,35.415 4380,35.1494 Q4379.4063,34.8681 4378.7813,34.8681 Q4377.4375,34.8681 4376.75,35.9463 Q4376.0625,37.0088 4376.0625,39.1025 Q4376.0625,41.1963 4376.75,42.2744 Q4377.4375,43.3369 4378.7813,43.3369 Q4379.4063,43.3369 4380,43.0713 Q4380.5938,42.79 4381.2188,42.2119 L4381.2188,44.9306 Z " fill="#FFFFFF"/><text fill="#FFFFFF" font-family="sans-serif" font-size="14" lengthAdjust="spacing" textLength="55" x="4398.75" y="44.1367">Cylinder</text><line style="stroke:#E7E7E7;stroke-width:0.5;" x1="4204.5" x2="4615.5" y1="55.29" y2="55.29"/><rect fill="none" height="6" style="stroke:#C82930;stroke-width:1.0;" width="6" x="4211.5" y="65.9384"/><text fill="#FFFFFF" font-family="sans-serif" font-size="14" lengthAdjust="spacing" textLength="38" x="4223.5" y="72.2851">id: int</text><rect fill="none" height="6" style="stroke:#C82930;stroke-width:1.0;" width="6" x="4211.5" y="82.2353"/><text fill="#FFFFFF" font-family="sans-serif" font-size="14" lengthAdjust="spacing" textLength="127" x="4223.5" y="88.582">center: np.ndarray</text><rect fill="none" height="6" style="stroke:#C82930;stroke-width:1.0;" width="6" x="4211.5" y="98.5322"/><text fill="#FFFFFF" font-family="sans-serif" font-size="14" lengthAdjust="spacing" textLength="80" x="4223.5" y="104.8789">radius: float</text><rect fill="none" height="6" style="stroke:#C82930;stroke-width:1.0;" width="6" x="4211.5" y="114.8291"/><text fill="#FFFFFF" font-family="sans-serif" font-size="14" lengthAdjust="spacing" textLength="82" x="4223.5" y="121.1757">height: float</text><rect fill="none" height="6" style="stroke:#C82930;stroke-width:1.0;" width="6" x="4211.5" y="131.1259"/><text fill="#FFFFFF" font-family="sans-serif" font-size="14" lengthAdjust="spacing" textLength="116" x="4223.5" y="137.4726">color: np.ndarray</text><line style="stroke:#E7E7E7;stroke-width:0.5;" x1="4204.5" x2="4615.5" y1="144.7744" y2="144.7744"/><text fill="#FFFFFF" font-family="sans-serif" font-size="14" lengthAdjust="spacing" textLength="401" x="4209.5" y="161.7695">__init__(self, center, radius, height, color=np.array([1,0,0]))</text><text fill="#FFFFFF" font-family="sans-serif" font-size="14" lengthAdjust="spacing" textLength="180" x="4209.5" y="178.0664">distance2point(self, point)</text><text fill="#FFFFFF" font-family="sans-serif" font-size="14" lengthAdjust="spacing" textLength="74" x="4209.5" y="194.3632">get_color()</text><text fill="#FFFFFF" font-family="sans-serif" font-size="14" lengthAdjust="spacing" textLength="88" x="4209.5" y="210.6601">to_array(self)</text></g><!--class Cone--><g id="elem_Cone"><rect codeLine="129" fill="#313139" height="194.6719" id="Cone" rx="2.5" ry="2.5" style="stroke:#E7E7E7;stroke-width:0.5;" width="379" x="4651.5" y="23.29"/><ellipse cx="4818.25" cy="39.29" fill="#2E5233" rx="11" ry="11" style="stroke:#E7E7E7;stroke-width:1.0;"/><path d="M4821.2188,44.9306 Q4820.6406,45.2275 4820,45.3681 Q4819.3594,45.5244 4818.6563,45.5244 Q4816.1563,45.5244 4814.8281,43.8838 Q4813.5156,42.2275 4813.5156,39.1025 Q4813.5156,35.9775 4814.8281,34.3213 Q4816.1563,32.665 4818.6563,32.665 Q4819.3594,32.665 4820,32.8213 Q4820.6563,32.9775 4821.2188,33.2744 L4821.2188,35.9931 Q4820.5938,35.415 4820,35.1494 Q4819.4063,34.8681 4818.7813,34.8681 Q4817.4375,34.8681 4816.75,35.9463 Q4816.0625,37.0088 4816.0625,39.1025 Q4816.0625,41.1963 4816.75,42.2744 Q4817.4375,43.3369 4818.7813,43.3369 Q4819.4063,43.3369 4820,43.0713 Q4820.5938,42.79 4821.2188,42.2119 L4821.2188,44.9306 Z " fill="#FFFFFF"/><text fill="#FFFFFF" font-family="sans-serif" font-size="14" lengthAdjust="spacing" textLength="37" x="4838.75" y="44.1367">Cone</text><line style="stroke:#E7E7E7;stroke-width:0.5;" x1="4652.5" x2="5029.5" y1="55.29" y2="55.29"/><rect fill="none" height="6" style="stroke:#C82930;stroke-width:1.0;" width="6" x="4659.5" y="65.9384"/><text fill="#FFFFFF" font-family="sans-serif" font-size="14" lengthAdjust="spacing" textLength="38" x="4671.5" y="72.2851">id: int</text><rect fill="none" height="6" style="stroke:#C82930;stroke-width:1.0;" width="6" x="4659.5" y="82.2353"/><text fill="#FFFFFF" font-family="sans-serif" font-size="14" lengthAdjust="spacing" textLength="127" x="4671.5" y="88.582">center: np.ndarray</text><rect fill="none" height="6" style="stroke:#C82930;stroke-width:1.0;" width="6" x="4659.5" y="98.5322"/><text fill="#FFFFFF" font-family="sans-serif" font-size="14" lengthAdjust="spacing" textLength="90" x="4671.5" y="104.8789">c: np.ndarray</text><rect fill="none" height="6" style="stroke:#C82930;stroke-width:1.0;" width="6" x="4659.5" y="114.8291"/><text fill="#FFFFFF" font-family="sans-serif" font-size="14" lengthAdjust="spacing" textLength="82" x="4671.5" y="121.1757">height: float</text><rect fill="none" height="6" style="stroke:#C82930;stroke-width:1.0;" width="6" x="4659.5" y="131.1259"/><text fill="#FFFFFF" font-family="sans-serif" font-size="14" lengthAdjust="spacing" textLength="116" x="4671.5" y="137.4726">color: np.ndarray</text><line style="stroke:#E7E7E7;stroke-width:0.5;" x1="4652.5" x2="5029.5" y1="144.7744" y2="144.7744"/><text fill="#FFFFFF" font-family="sans-serif" font-size="14" lengthAdjust="spacing" textLength="367" x="4657.5" y="161.7695">__init__(self, center, c, height, color=np.array([1,0,0]))</text><text fill="#FFFFFF" font-family="sans-serif" font-size="14" lengthAdjust="spacing" textLength="180" x="4657.5" y="178.0664">distance2point(self, point)</text><text fill="#FFFFFF" font-family="sans-serif" font-size="14" lengthAdjust="spacing" textLength="74" x="4657.5" y="194.3632">get_color()</text><text fill="#FFFFFF" font-family="sans-serif" font-size="14" lengthAdjust="spacing" textLength="88" x="4657.5" y="210.6601">to_array(self)</text></g><!--link PygameRenderer to Camera--><g id="link_PygameRenderer_Camera"><path codeLine="141" d="M473,210.07 C473,236.84 473,260.5 473,288.21 " fill="none" id="PygameRenderer-to-Camera" style="stroke:#E7E7E7;stroke-width:1.0;"/><polygon fill="#E7E7E7" points="473,294.21,477,285.21,473,289.21,469,285.21,473,294.21" style="stroke:#E7E7E7;stroke-width:1.0;"/></g><!--link Sphere to RayMarchObject--><g id="link_Sphere_RayMarchObject"><path codeLine="142" d="M1191.55,226.51 C1201.77,229.33 1211.94,231.93 1222,234.26 C1576.29,316.22 2717.1377,378.5463 3031.6177,394.4863 " fill="none" id="Sphere-to-RayMarchObject" style="stroke:#E7E7E7;stroke-width:1.0;"/><polygon fill="#E7E7E7" points="3037.61,394.79,3028.824,390.3395,3032.6164,394.5369,3028.4191,398.3293,3037.61,394.79" style="stroke:#E7E7E7;stroke-width:1.0;"/></g><!--link FuzzySphere to RayMarchObject--><g id="link_FuzzySphere_RayMarchObject"><path codeLine="143" d="M1577.07,218.36 C1590.62,224.42 1604.36,229.84 1618,234.26 C1886.7,321.29 2760.9303,378.0494 3031.9003,393.9094 " fill="none" id="FuzzySphere-to-RayMarchObject" style="stroke:#E7E7E7;stroke-width:1.0;"/><polygon fill="#E7E7E7" points="3037.89,394.26,3029.1391,389.741,3032.8985,393.9678,3028.6717,397.7273,3037.89,394.26" style="stroke:#E7E7E7;stroke-width:1.0;"/></g><!--link Box to RayMarchObject--><g id="link_Box_RayMarchObject"><path codeLine="144" d="M2344.84,226.57 C2354.65,229.2 2364.39,231.77 2374,234.26 C2613.78,296.41 2894.9561,354.4653 3031.8461,381.7953 " fill="none" id="Box-to-RayMarchObject" style="stroke:#E7E7E7;stroke-width:1.0;"/><polygon fill="#E7E7E7" points="3037.73,382.97,3029.6873,377.2853,3032.8268,381.9911,3028.121,385.1305,3037.73,382.97" style="stroke:#E7E7E7;stroke-width:1.0;"/></g><!--link RoundBox to RayMarchObject--><g id="link_RoundBox_RayMarchObject"><path codeLine="145" d="M2922.11,234.74 C2974.84,278.89 3027.2396,322.7582 3066.0796,355.2782 " fill="none" id="RoundBox-to-RayMarchObject" style="stroke:#E7E7E7;stroke-width:1.0;"/><polygon fill="#E7E7E7" points="3070.68,359.13,3066.3473,350.2854,3066.8463,355.9202,3061.2115,356.4192,3070.68,359.13" style="stroke:#E7E7E7;stroke-width:1.0;"/></g><!--link FrameBox to RayMarchObject--><g id="link_FrameBox_RayMarchObject"><path codeLine="146" d="M3333.7,218.16 C3275.86,266.58 3213.5908,318.7187 3169.8208,355.3587 " fill="none" id="FrameBox-to-RayMarchObject" style="stroke:#E7E7E7;stroke-width:1.0;"/><polygon fill="#E7E7E7" points="3165.22,359.21,3174.6887,356.5002,3169.054,356.0006,3169.5536,350.3658,3165.22,359.21" style="stroke:#E7E7E7;stroke-width:1.0;"/></g><!--link Torus to RayMarchObject--><g id="link_Torus_RayMarchObject"><path codeLine="147" d="M3758.1,210.19 C3738,218.77 3717.69,226.98 3698,234.26 C3523.27,298.91 3316.9551,351.7829 3203.8951,378.8529 " fill="none" id="Torus-to-RayMarchObject" style="stroke:#E7E7E7;stroke-width:1.0;"/><polygon fill="#E7E7E7" points="3198.06,380.25,3207.744,382.0444,3202.9226,379.0858,3205.8812,374.2643,3198.06,380.25" style="stroke:#E7E7E7;stroke-width:1.0;"/></g><!--link Cylinder to RayMarchObject--><g id="link_Cylinder_RayMarchObject"><path codeLine="148" d="M4229.23,218.41 C4214.82,224.3 4200.3,229.69 4186,234.26 C3829.05,348.35 3384.9001,384.195 3204.3201,394.595 " fill="none" id="Cylinder-to-RayMarchObject" style="stroke:#E7E7E7;stroke-width:1.0;"/><polygon fill="#E7E7E7" points="3198.33,394.94,3207.5451,398.4159,3203.3217,394.6525,3207.0851,390.4291,3198.33,394.94" style="stroke:#E7E7E7;stroke-width:1.0;"/></g><!--link Cone to RayMarchObject--><g id="link_Cone_RayMarchObject"><path codeLine="149" d="M4676.27,218.46 C4662.25,224.48 4648.06,229.86 4634,234.26 C4361.44,319.53 3477.5194,377.5436 3204.4194,393.7936 " fill="none" id="Cone-to-RayMarchObject" style="stroke:#E7E7E7;stroke-width:1.0;"/><polygon fill="#E7E7E7" points="3198.43,394.15,3207.6517,397.6084,3203.4212,393.853,3207.1765,389.6225,3198.43,394.15" style="stroke:#E7E7E7;stroke-width:1.0;"/></g><!--SRC=[lLPHRzem47xdLxXl89aA9kq5YKaRKgKzJAleNgPfibp78LwD7TbEMLhrlyzs78g3OK0fF4JaxdpttVUT7LzbD6U2Wi_tsYXCp8nZhG5npzvLy7qLXgeS4mfO-w_Nyo5WXfTKOV3S0_Ot1ANKp30f9a2KroB3Ik4wkBYK3mYRXASgqICbHgg4BvUF4v1pYKqmO5tQMAImBHDx1CKA4SxAs9mdh0WnmGn2VKrv3fEeOGemJ6E56p1X2Y7S0WUxk0OUcAO6OSxjube7S2kMcGA2Wh954Q8MDch5H2PNY4YhY32fMFig5Sy6lPTMhDjwOUMQKv5HHTLQD4qKfGBvnHCdSMnlicqwVDu9u4ot5kB7O1B68Le_0QKlUtrNDPCJSaJujvJlA9Hg38Qg3ITBp8HLhFGBVC_nHCzn_GqhKdo__sFL2Rq_un3p0ZBR31Q4VYYbRRJlduDka2EUI2vLVuFLkxAmTAxPPDacLOIw7PCOR8KpLkbuL7tgHEooueQLTHmSZCW1tpFR3G0Owi6cnjIMy0NwlyPm14U_1x3DDnt1AFNqOyD2Xvzsux1OkzVvz7Nycv6egRLMfk7jfdfwgj-VF4qmTqdUoj3_QEYqtX_iRVwMOq5_xkYxFgIpJXVrDl0H71yEV1VGB_BliUeKcET8iupgX7ENJ4eQTs0AEtHxtLWiE3r0pLSGCCeTyHD6FqxkTi15Pc0kAv6Tcr_baZAnE6npl2_h3P8zPywnmfoN_njbln_dvjyKZ3m8glK9UpZ5uZhVXORoXrILFkKyFdYlxpb-e-R6RW8kqlEivipTYSxn6MflIoUBttw6shlEPHYGukYFC4bjZRTsJoxMUESoF1n-Qc-luKxYBF6jiRTvPKcutLcICA_F-LJ6zWnA-9gjc72ivpNbSqfks_y1]--></g></svg>