<?xml version="1.0" encoding="us-ascii" standalone="no"?><svg xmlns="http://www.w3.org/2000/svg" xmlns:xlink="http://www.w3.org/1999/xlink" contentStyleType="text/css" height="688px" preserveAspectRatio="none" style="width:1066px;height:688px;background:#1B1B1B;" version="1.1" viewBox="0 0 1066 688" width="1066px" zoomAndPan="magnify"><defs/><g><rect fill="#1B1B1B" height="688" style="stroke:none;stroke-width:1.0;" width="1066" x="0" y="0"/><rect fill="#000000" height="485.7266" style="stroke:#E7E7E7;stroke-width:1.0;" width="10" x="227" y="112.4297"/><rect fill="#000000" height="28" style="stroke:#E7E7E7;stroke-width:1.0;" width="10" x="232" y="149.5625"/><rect fill="#000000" height="58.2656" style="stroke:#E7E7E7;stroke-width:1.0;" width="10" x="1012" y="411.4922"/><rect fill="none" height="391.5938" style="stroke:#FFFFFF;stroke-width:1.5;" width="1050.5" x="10" y="199.5625"/><rect fill="none" height="117.5313" style="stroke:#FFFFFF;stroke-width:1.5;" width="727" x="155" y="265.8281"/><line style="stroke:#E7E7E7;stroke-width:0.5;stroke-dasharray:5.0,5.0;" x1="39" x2="39" y1="81.2969" y2="608.1563"/><line style="stroke:#E7E7E7;stroke-width:0.5;stroke-dasharray:5.0,5.0;" x1="232" x2="232" y1="81.2969" y2="608.1563"/><line style="stroke:#E7E7E7;stroke-width:0.5;stroke-dasharray:5.0,5.0;" x1="790" x2="790" y1="81.2969" y2="608.1563"/><line style="stroke:#E7E7E7;stroke-width:0.5;stroke-dasharray:5.0,5.0;" x1="852" x2="852" y1="81.2969" y2="608.1563"/><line style="stroke:#E7E7E7;stroke-width:0.5;stroke-dasharray:5.0,5.0;" x1="1016.5" x2="1016.5" y1="81.2969" y2="608.1563"/><text fill="#FFFFFF" font-family="sans-serif" font-size="14" lengthAdjust="spacing" textLength="32" x="20" y="77.9951">User</text><ellipse cx="39" cy="13.5" fill="#222222" rx="8" ry="8" style="stroke:#E7E7E7;stroke-width:0.5;"/><path d="M39,21.5 L39,48.5 M26,29.5 L52,29.5 M39,48.5 L26,63.5 M39,48.5 L52,63.5 " fill="none" style="stroke:#E7E7E7;stroke-width:0.5;"/><text fill="#FFFFFF" font-family="sans-serif" font-size="14" lengthAdjust="spacing" textLength="32" x="20" y="620.1514">User</text><ellipse cx="39" cy="631.9531" fill="#222222" rx="8" ry="8" style="stroke:#E7E7E7;stroke-width:0.5;"/><path d="M39,639.9531 L39,666.9531 M26,647.9531 L52,647.9531 M39,666.9531 L26,681.9531 M39,666.9531 L52,681.9531 " fill="none" style="stroke:#E7E7E7;stroke-width:0.5;"/><rect fill="#222222" height="30.2969" rx="2.5" ry="2.5" style="stroke:#E7E7E7;stroke-width:0.5;" width="134" x="165" y="50"/><text fill="#FFFFFF" font-family="sans-serif" font-size="14" lengthAdjust="spacing" textLength="120" x="172" y="69.9951">PygameRenderer</text><rect fill="#222222" height="30.2969" rx="2.5" ry="2.5" style="stroke:#E7E7E7;stroke-width:0.5;" width="134" x="165" y="607.1563"/><text fill="#FFFFFF" font-family="sans-serif" font-size="14" lengthAdjust="spacing" textLength="120" x="172" y="627.1514">PygameRenderer</text><rect fill="#222222" height="30.2969" rx="2.5" ry="2.5" style="stroke:#E7E7E7;stroke-width:0.5;" width="64" x="758" y="50"/><text fill="#FFFFFF" font-family="sans-serif" font-size="14" lengthAdjust="spacing" textLength="50" x="765" y="69.9951">Sphere</text><rect fill="#222222" height="30.2969" rx="2.5" ry="2.5" style="stroke:#E7E7E7;stroke-width:0.5;" width="64" x="758" y="607.1563"/><text fill="#FFFFFF" font-family="sans-serif" font-size="14" lengthAdjust="spacing" textLength="50" x="765" y="627.1514">Sphere</text><rect fill="#222222" height="30.2969" rx="2.5" ry="2.5" style="stroke:#E7E7E7;stroke-width:0.5;" width="40" x="832" y="50"/><text fill="#FFFFFF" font-family="sans-serif" font-size="14" lengthAdjust="spacing" textLength="26" x="839" y="69.9951">Box</text><rect fill="#222222" height="30.2969" rx="2.5" ry="2.5" style="stroke:#E7E7E7;stroke-width:0.5;" width="40" x="832" y="607.1563"/><text fill="#FFFFFF" font-family="sans-serif" font-size="14" lengthAdjust="spacing" textLength="26" x="839" y="627.1514">Box</text><rect fill="#222222" height="30.2969" rx="2.5" ry="2.5" style="stroke:#E7E7E7;stroke-width:0.5;" width="67" x="983.5" y="50"/><text fill="#FFFFFF" font-family="sans-serif" font-size="14" lengthAdjust="spacing" textLength="53" x="990.5" y="69.9951">Camera</text><rect fill="#222222" height="30.2969" rx="2.5" ry="2.5" style="stroke:#E7E7E7;stroke-width:0.5;" width="67" x="983.5" y="607.1563"/><text fill="#FFFFFF" font-family="sans-serif" font-size="14" lengthAdjust="spacing" textLength="53" x="990.5" y="627.1514">Camera</text><rect fill="#000000" height="485.7266" style="stroke:#E7E7E7;stroke-width:1.0;" width="10" x="227" y="112.4297"/><rect fill="#000000" height="28" style="stroke:#E7E7E7;stroke-width:1.0;" width="10" x="232" y="149.5625"/><rect fill="#000000" height="58.2656" style="stroke:#E7E7E7;stroke-width:1.0;" width="10" x="1012" y="411.4922"/><polygon fill="#E7E7E7" points="215,108.4297,225,112.4297,215,116.4297,219,112.4297" style="stroke:#E7E7E7;stroke-width:1.0;"/><line style="stroke:#E7E7E7;stroke-width:1.0;" x1="39" x2="221" y1="112.4297" y2="112.4297"/><text fill="#FFFFFF" font-family="sans-serif" font-size="13" lengthAdjust="spacing" textLength="69" x="46" y="107.3638">mainloop()</text><line style="stroke:#E7E7E7;stroke-width:1.0;" x1="242" x2="284" y1="141.5625" y2="141.5625"/><line style="stroke:#E7E7E7;stroke-width:1.0;" x1="284" x2="284" y1="141.5625" y2="154.5625"/><line style="stroke:#E7E7E7;stroke-width:1.0;" x1="243" x2="284" y1="154.5625" y2="154.5625"/><polygon fill="#E7E7E7" points="253,150.5625,243,154.5625,253,158.5625,249,154.5625" style="stroke:#E7E7E7;stroke-width:1.0;"/><text fill="#FFFFFF" font-family="sans-serif" font-size="13" lengthAdjust="spacing" text-decoration="underline" textLength="19" x="249" y="136.4966">init</text><text fill="#FFFFFF" font-family="sans-serif" font-size="13" lengthAdjust="spacing" textLength="189" x="268" y="136.4966">(width, height, world, camera)</text><path d="M10,199.5625 L74,199.5625 L74,206.6953 L64,216.6953 L10,216.6953 L10,199.5625 " fill="#555555" style="stroke:#FFFFFF;stroke-width:1.5;"/><rect fill="none" height="391.5938" style="stroke:#FFFFFF;stroke-width:1.5;" width="1050.5" x="10" y="199.5625"/><text fill="#FFFFFF" font-family="sans-serif" font-size="13" font-weight="bold" lengthAdjust="spacing" textLength="19" x="25" y="212.6294">alt</text><text fill="#FFFFFF" font-family="sans-serif" font-size="11" font-weight="bold" lengthAdjust="spacing" textLength="98" x="89" y="211.7729">[while running]</text><line style="stroke:#E7E7E7;stroke-width:1.0;" x1="237" x2="279" y1="237.8281" y2="237.8281"/><line style="stroke:#E7E7E7;stroke-width:1.0;" x1="279" x2="279" y1="237.8281" y2="250.8281"/><line style="stroke:#E7E7E7;stroke-width:1.0;" x1="238" x2="279" y1="250.8281" y2="250.8281"/><polygon fill="#E7E7E7" points="248,246.8281,238,250.8281,248,254.8281,244,250.8281" style="stroke:#E7E7E7;stroke-width:1.0;"/><text fill="#FFFFFF" font-family="sans-serif" font-size="13" lengthAdjust="spacing" textLength="168" x="244" y="232.7622">screen.fill((255, 255, 255))</text><path d="M155,265.8281 L219,265.8281 L219,272.9609 L209,282.9609 L155,282.9609 L155,265.8281 " fill="#555555" style="stroke:#FFFFFF;stroke-width:1.5;"/><rect fill="none" height="117.5313" style="stroke:#FFFFFF;stroke-width:1.5;" width="727" x="155" y="265.8281"/><text fill="#FFFFFF" font-family="sans-serif" font-size="13" font-weight="bold" lengthAdjust="spacing" textLength="19" x="170" y="278.895">alt</text><text fill="#FFFFFF" font-family="sans-serif" font-size="11" font-weight="bold" lengthAdjust="spacing" textLength="105" x="234" y="278.0386">[every 5 frames]</text><polygon fill="#E7E7E7" points="778,300.0938,788,304.0938,778,308.0938,782,304.0938" style="stroke:#E7E7E7;stroke-width:1.0;"/><line style="stroke:#E7E7E7;stroke-width:1.0;" x1="237" x2="784" y1="304.0938" y2="304.0938"/><text fill="#FFFFFF" font-family="sans-serif" font-size="13" lengthAdjust="spacing" textLength="237" x="244" y="299.0278">update properties (e.g., multipy_dist)</text><polygon fill="#E7E7E7" points="840,329.2266,850,333.2266,840,337.2266,844,333.2266" style="stroke:#E7E7E7;stroke-width:1.0;"/><line style="stroke:#E7E7E7;stroke-width:1.0;" x1="237" x2="846" y1="333.2266" y2="333.2266"/><text fill="#FFFFFF" font-family="sans-serif" font-size="13" lengthAdjust="spacing" textLength="252" x="244" y="328.1606">update properties (e.g., rotation_angle)</text><line style="stroke:#E7E7E7;stroke-width:1.0;" x1="237" x2="279" y1="362.3594" y2="362.3594"/><line style="stroke:#E7E7E7;stroke-width:1.0;" x1="279" x2="279" y1="362.3594" y2="375.3594"/><line style="stroke:#E7E7E7;stroke-width:1.0;" x1="238" x2="279" y1="375.3594" y2="375.3594"/><polygon fill="#E7E7E7" points="248,371.3594,238,375.3594,248,379.3594,244,375.3594" style="stroke:#E7E7E7;stroke-width:1.0;"/><text fill="#FFFFFF" font-family="sans-serif" font-size="13" lengthAdjust="spacing" textLength="534" x="244" y="357.2935">window_content = camera.get_window_content(screen_width, screen_height, world)</text><polygon fill="#E7E7E7" points="1000,407.4922,1010,411.4922,1000,415.4922,1004,411.4922" style="stroke:#E7E7E7;stroke-width:1.0;"/><line style="stroke:#E7E7E7;stroke-width:1.0;" x1="237" x2="1006" y1="411.4922" y2="411.4922"/><text fill="#FFFFFF" font-family="sans-serif" font-size="13" lengthAdjust="spacing" textLength="361" x="244" y="406.4263">get_window_content(screen_width, screen_height, world)</text><polygon fill="#E7E7E7" points="801,436.625,791,440.625,801,444.625,797,440.625" style="stroke:#E7E7E7;stroke-width:1.0;"/><line style="stroke:#E7E7E7;stroke-width:1.0;" x1="795" x2="1011" y1="440.625" y2="440.625"/><text fill="#FFFFFF" font-family="sans-serif" font-size="13" lengthAdjust="spacing" textLength="136" x="807" y="435.5591">distance2point(point)</text><polygon fill="#E7E7E7" points="863,465.7578,853,469.7578,863,473.7578,859,469.7578" style="stroke:#E7E7E7;stroke-width:1.0;"/><line style="stroke:#E7E7E7;stroke-width:1.0;" x1="857" x2="1016" y1="469.7578" y2="469.7578"/><text fill="#FFFFFF" font-family="sans-serif" font-size="13" lengthAdjust="spacing" textLength="136" x="869" y="464.6919">distance2point(point)</text><line style="stroke:#E7E7E7;stroke-width:1.0;" x1="237" x2="279" y1="498.8906" y2="498.8906"/><line style="stroke:#E7E7E7;stroke-width:1.0;" x1="279" x2="279" y1="498.8906" y2="511.8906"/><line style="stroke:#E7E7E7;stroke-width:1.0;" x1="238" x2="279" y1="511.8906" y2="511.8906"/><polygon fill="#E7E7E7" points="248,507.8906,238,511.8906,248,515.8906,244,511.8906" style="stroke:#E7E7E7;stroke-width:1.0;"/><text fill="#FFFFFF" font-family="sans-serif" font-size="13" lengthAdjust="spacing" textLength="177" x="244" y="493.8247">screen.blit(window_content)</text><line style="stroke:#E7E7E7;stroke-width:1.0;" x1="237" x2="279" y1="541.0234" y2="541.0234"/><line style="stroke:#E7E7E7;stroke-width:1.0;" x1="279" x2="279" y1="541.0234" y2="554.0234"/><line style="stroke:#E7E7E7;stroke-width:1.0;" x1="238" x2="279" y1="554.0234" y2="554.0234"/><polygon fill="#E7E7E7" points="248,550.0234,238,554.0234,248,558.0234,244,554.0234" style="stroke:#E7E7E7;stroke-width:1.0;"/><text fill="#FFFFFF" font-family="sans-serif" font-size="13" lengthAdjust="spacing" textLength="132" x="244" y="535.9575">pygame.display.flip()</text><polygon fill="#E7E7E7" points="215,579.1563,225,583.1563,215,587.1563,219,583.1563" style="stroke:#E7E7E7;stroke-width:1.0;"/><line style="stroke:#E7E7E7;stroke-width:1.0;" x1="39" x2="221" y1="583.1563" y2="583.1563"/><text fill="#FFFFFF" font-family="sans-serif" font-size="13" lengthAdjust="spacing" textLength="164" x="46" y="578.0903">event handling (e.g., quit)</text><!--SRC=[fPFDJiCm3CVlUGeVMwdqC6cNIN205q0Wpb5elDPIbeJKNUdRawRTj4vqWEZ1YbFhztVyeIfs0TvQ34AC5kuUu7cerG5Vq6eC67PmK6IDSpxBXL0Lqr4nNWK9iVI_mqX9bbZAh2VDJG4DKjrm0RqBHXTGnU2WybK5ZQlQoZ3q3Hc4q5bBjXOGlvypQgk0QCiz6PDbc-ssW9F9yuH8PgJZ4SC0MzY726ZJzVSIhxw9nnrqNe-P-k0y1YPi8SEoBWiuT8R93r9Jo_aDqAFxl449ZXMJirBPsk0jplMRUxBQzR9obj4otCzrBsjakVoNJUMHSxjcRz6rIJYonKh5dn9y1_-Wdxi-iTBTTBoizrXEPIlSU4SHdcn-5PjAkXvuCM0NKdyRfNT3d2qVcl-Iu9DVnloyKKEvDpGkt3c5jUMCandRs2YhJHpyqtnyT3GBYzITrUNv0W00]--></g></svg>